<svg xmlns="http://www.w3.org/2000/svg" version="1.1" xmlns:xlink="http://www.w3.org/1999/xlink" xmlns:svgjs="http://svgjs.dev/svgjs" width="1000" height="1382" viewBox="0 0 1000 1382"><g transform="matrix(1,0,0,1,1.441176470588175,-1.9553829787231507)"><svg viewBox="0 0 102 141" data-background-color="#161618" preserveAspectRatio="xMidYMid meet" height="1382" width="1000" xmlns="http://www.w3.org/2000/svg" xmlns:xlink="http://www.w3.org/1999/xlink"><g id="tight-bounds" transform="matrix(1,0,0,1,-0.14699999999999136,0.19949999999997203)"><svg viewBox="0 0 102.29354915436244 140.60052000000002" height="140.60052000000002" width="102.29354915436244"><g><svg viewBox="0 0 102.29354915436244 140.60052000000002" height="140.60052000000002" width="102.29354915436244"><g><svg viewBox="0 0 102.29354915436244 140.60052000000002" height="140.60052000000002" width="102.29354915436244"><g><path d="M0 140.601v-140.601h102.294v140.601z" fill="#ffffff" stroke="transparent" stroke-width="0" rx="0%" data-fill-palette-color="tertiary"></path><path d="M3.283 137.317v-134.034h95.727v134.034z" fill="#161618" stroke="transparent" stroke-width="0" rx="0%" data-fill-palette-color="quaternary"></path><path d="M9.85 130.751v-120.901h82.594v120.901z" fill="#ffffff" stroke="transparent" stroke-width="0" data-fill-palette-color="tertiary"></path></g><g transform="matrix(1,0,0,1,19.699740000000002,19.69974)" id="textblocktransform"><svg viewBox="0 0 62.894069154362434 101.20104000000002" height="101.20104000000002" width="62.894069154362434" id="textblock"><g><svg viewBox="0 0 62.894069154362434 101.20104000000002" height="101.20104000000002" width="62.894069154362434"><g transform="matrix(1,0,0,1,0,0)"><svg width="62.894069154362434" viewBox="3.3499999046325684 -36.95000076293945 23.149999618530273 37.25" height="101.20104000000002" data-palette-color="#161618"><path d="M16.1 0.3L16.1 0.3Q12.7 0.3 10.28-0.45 7.85-1.2 6.33-3.18 4.8-5.15 4.08-8.83 3.35-12.5 3.35-18.45L3.35-18.45Q3.35-23.95 4.08-27.58 4.8-31.2 6.38-33.23 7.95-35.25 10.45-36.1 12.95-36.95 16.45-36.95L16.45-36.95Q17.5-36.95 19.23-36.8 20.95-36.65 22.88-36.43 24.8-36.2 26.5-35.85L26.5-35.85 26.5-34.4Q25.65-34.55 24.08-34.7 22.5-34.85 20.5-34.98 18.5-35.1 16.55-35.1L16.55-35.1Q13.55-35.1 11.4-34.4 9.25-33.7 7.93-31.88 6.6-30.05 6-26.8 5.4-23.55 5.4-18.4L5.4-18.4Q5.4-13.05 6-9.7 6.6-6.35 7.9-4.58 9.2-2.8 11.28-2.18 13.35-1.55 16.35-1.55L16.35-1.55Q20.1-1.55 22.53-1.78 24.95-2 26.5-2.25L26.5-2.25 26.5-0.75Q24.85-0.45 22.98-0.2 21.1 0.05 19.3 0.18 17.5 0.3 16.1 0.3Z" opacity="1" transform="matrix(1,0,0,1,0,0)" fill="#161618" class="wordmark-text-0" data-fill-palette-color="quaternary" id="text-0"></path></svg></g></svg></g></svg></g></svg></g><g></g></svg></g><defs></defs></svg><rect width="102.29354915436244" height="140.60052000000002" fill="none" stroke="none" visibility="hidden"></rect></g></svg></g></svg>